<svg id="Layer_1" data-name="Layer 1" xmlns="http://www.w3.org/2000/svg" viewBox="0 0 503.13 188.14"><defs><style>.cls-1{fill:#fcfcfc;}.cls-2{fill:#fff;}</style></defs><title>Hyper_logo</title><path class="cls-1" d="M169.35,333.83l-8.75-5.05V327.3a8.61,8.61,0,1,0-17.22,0v80.54a8.76,8.76,0,1,1-17.51,0V389h0a8.73,8.73,0,0,0-17.45,0h0v15.18a8.75,8.75,0,0,1-17.5,0V341.53a8.75,8.75,0,0,1,17.5,0v10.36a8.76,8.76,0,0,0,17.51,0V308.76l-.15-.08a8.73,8.73,0,0,0-17.21,0l-.15.08v10a8.75,8.75,0,0,1-17.5.11h0V318a8.76,8.76,0,1,0-17.51,0V329l-8.47,4.88a18.12,18.12,0,0,0-9,15.67v49.87a18.12,18.12,0,0,0,9,15.67L108.07,440a18,18,0,0,0,8.58,2.39c.11,0,.21,0,.32,0a8.9,8.9,0,0,0,8.9-8.91V430.8a8.73,8.73,0,0,1,17.44-.73l.1-.06a8.6,8.6,0,0,0,17.19-.26v-9.66l8.75-5a18.1,18.1,0,0,0,9-15.67V349.5a18.1,18.1,0,0,0-9-15.67M152,445.56a8.76,8.76,0,1,0,8.75,8.75A8.75,8.75,0,0,0,152,445.56ZM99.61,302.21h0a8.75,8.75,0,0,0,8.75-8.75v-9.78a8.75,8.75,0,0,0-17.5,0v9.78A8.75,8.75,0,0,0,99.61,302.21Z" transform="translate(-55.84 -274.93)"/><path class="cls-2" d="M496.9,398.14a5.72,5.72,0,0,1-3.55-1.92l-.93-1.71V372.18q1.43-3.46,4.19-3.68h44.44a6.57,6.57,0,0,0,4.19-2.42,6,6,0,0,0,1.14-2.92v-2.35a5.4,5.4,0,0,0-1.84-3.7,8.12,8.12,0,0,0-3.7-1.62h-44.3a5.83,5.83,0,0,1-4.12-3.7v-2.36c1.05-2.32,2.51-3.54,4.41-3.69h43.51a17.44,17.44,0,0,1,12.16,5.69A18.3,18.3,0,0,1,556,359.1v2l.22,1.71a14.94,14.94,0,0,1-2.92,9,12.18,12.18,0,0,1,4.34,5.69,17.14,17.14,0,0,1,1.35,6.12v10q-.57,4.47-5.33,4.55a6,6,0,0,1-3.55-1.92l-.94-2.13v-11a6.19,6.19,0,0,0-1.84-3.56,5.63,5.63,0,0,0-3.06-1.21H502v16.14a6.69,6.69,0,0,1-2.78,3.27Zm-74.76-42.65-2.69-1.29a7.21,7.21,0,0,1-1.14-2.27,7.75,7.75,0,0,1-.15-2.63,5.94,5.94,0,0,1,4.42-3.56H480.3c2.81.43,4.27,2.14,4.42,5.12a9.42,9.42,0,0,1-.57,1.85,5.87,5.87,0,0,1-1.21,1.64l-2.27,1.14Zm.37,42.65a16.44,16.44,0,0,1-1.79-.64,4.26,4.26,0,0,1-1.62-1.28l-.94-1.71v-25a5.09,5.09,0,0,1,4.13-3.85h52.76l2.56,1.44a9.79,9.79,0,0,1,1.16,2.16,4.4,4.4,0,0,1,0,2.59L477.68,374a14.13,14.13,0,0,1-1.49.88,9.37,9.37,0,0,1-1.64.61H427.76V388.4h52.69q4.05.64,4.27,5.19a5.16,5.16,0,0,1-4.62,4.55Zm-74.25,0a5.77,5.77,0,0,1-3.56-1.92l-.92-1.71V372.26c.71-2.37,2.12-3.62,4.26-3.76h47.14a6.84,6.84,0,0,0,4.33-2.42,5.56,5.56,0,0,0,1-2.78v-2.7a5.3,5.3,0,0,0-1.77-3.49,8.56,8.56,0,0,0-3.7-1.62H347.89a5.84,5.84,0,0,1-4.11-3.7v-2.36a5.06,5.06,0,0,1,4.41-3.69h46.57a17.26,17.26,0,0,1,11.94,5.62,16.4,16.4,0,0,1,3.63,9.31v2.56a15.85,15.85,0,0,1-5.7,11.45A21.55,21.55,0,0,1,395,378.3H353.38v16.14a6.69,6.69,0,0,1-2.78,3.27Zm-45.89,0a5.43,5.43,0,0,1-3.48-1.92l-1-1.84V375.81l-28-23-.29-1.07v-2.28c1.29-3.41,3.7-4.5,7.26-3.26L303,367l26.24-21.18q6.18-.93,6.83,5a5.32,5.32,0,0,1-1.93,3.7l-26.66,21.32v18.7l-1.14,2.14A6.24,6.24,0,0,1,302.37,398.14Zm-102.69,0a13.79,13.79,0,0,1-1.85-.64,4.38,4.38,0,0,1-1.64-1.28l-.92-1.71V349.43a5.18,5.18,0,0,1,5.12-3.69,8.63,8.63,0,0,1,2,.67,6,6,0,0,1,1.77,1.47l.72,1.49v18.55H252v-18a5.07,5.07,0,0,1,1.6-3.09,6.41,6.41,0,0,1,1.92-.9,8.75,8.75,0,0,1,1.89-.21c2.7.19,4.18,1.73,4.41,4.63v43.22c-.48,3-2.27,4.5-5.4,4.55a8.51,8.51,0,0,1-1.86-.7,7.87,7.87,0,0,1-1.57-1.22l-1-2.13V377.52H204.87v17a11,11,0,0,1-1.14,1.86,5.9,5.9,0,0,1-1.64,1.34Z" transform="translate(-55.84 -274.93)"/></svg>